<svg width="17" height="16" viewBox="0 0 17 16" fill="none" xmlns="http://www.w3.org/2000/svg">
<path fill-rule="evenodd" clip-rule="evenodd" d="M6.35355 2.64645C6.54882 2.84171 6.54882 3.15829 6.35355 3.35355L5.20711 4.5H14C14.2761 4.5 14.5 4.72386 14.5 5C14.5 5.27614 14.2761 5.5 14 5.5H5.20711L6.35355 6.64645C6.54882 6.84171 6.54882 7.15829 6.35355 7.35355C6.15829 7.54882 5.84171 7.54882 5.64645 7.35355L3.64645 5.35355C3.45118 5.15829 3.45118 4.84171 3.64645 4.64645L5.64645 2.64645C5.84171 2.45118 6.15829 2.45118 6.35355 2.64645ZM11.1464 8.64645C11.3417 8.45118 11.6583 8.45118 11.8536 8.64645L13.8536 10.6464C14.0488 10.8417 14.0488 11.1583 13.8536 11.3536L11.8536 13.3536C11.6583 13.5488 11.3417 13.5488 11.1464 13.3536C10.9512 13.1583 10.9512 12.8417 11.1464 12.6464L12.2929 11.5H3.5C3.22386 11.5 3 11.2761 3 11C3 10.7239 3.22386 10.5 3.5 10.5H12.2929L11.1464 9.35355C10.9512 9.15829 10.9512 8.84171 11.1464 8.64645Z" fill="#6B3EAA"/>
</svg>
